<svg width="600" height="338" viewBox="0 0 600 338" fill="none" xmlns="http://www.w3.org/2000/svg">
<rect width="600" height="337.5" fill="#141414"/>
<path d="M448.102 232.448C447.333 232.448 446.613 232.388 445.94 232.268C445.28 232.16 444.709 231.998 444.229 231.781V229.314C444.757 229.542 445.34 229.728 445.976 229.872C446.625 230.016 447.237 230.088 447.814 230.088C448.534 230.088 449.068 230.022 449.417 229.89C449.777 229.758 449.957 229.47 449.957 229.025C449.957 228.725 449.867 228.485 449.687 228.305C449.519 228.125 449.237 227.969 448.84 227.837C448.456 227.692 447.928 227.524 447.255 227.332C446.463 227.092 445.832 226.828 445.364 226.54C444.895 226.239 444.559 225.879 444.355 225.459C444.151 225.039 444.049 224.522 444.049 223.91C444.049 222.805 444.445 221.958 445.238 221.37C446.03 220.782 447.201 220.487 448.75 220.487C449.423 220.487 450.077 220.541 450.714 220.649C451.35 220.745 451.866 220.86 452.263 220.992V223.477C451.746 223.273 451.224 223.123 450.696 223.027C450.179 222.931 449.675 222.883 449.182 222.883C448.534 222.883 448.006 222.943 447.597 223.063C447.201 223.183 447.003 223.459 447.003 223.892C447.003 224.144 447.075 224.348 447.219 224.504C447.363 224.648 447.609 224.78 447.958 224.9C448.318 225.021 448.804 225.165 449.417 225.333C450.365 225.585 451.092 225.891 451.596 226.251C452.101 226.6 452.449 227.008 452.641 227.476C452.833 227.933 452.929 228.449 452.929 229.025C452.929 230.046 452.533 230.875 451.74 231.511C450.948 232.136 449.735 232.448 448.102 232.448Z" fill="white"/>
<path d="M422.477 232.267V220.667H425.341L428.493 227.098L431.627 220.667H434.473V232.267H431.573V225.603L429.285 230.286H427.682L425.377 225.603V232.267H422.477Z" fill="white"/>
<path d="M407.3 232.447C406.219 232.447 405.276 232.273 404.472 231.925C403.679 231.577 403.061 231.06 402.616 230.376C402.184 229.691 401.968 228.851 401.968 227.854V220.667H404.868V227.584C404.868 228.389 405.078 228.989 405.498 229.385C405.919 229.782 406.519 229.98 407.3 229.98C408.08 229.98 408.681 229.782 409.101 229.385C409.521 228.989 409.731 228.389 409.731 227.584V220.667H412.631V227.854C412.631 228.851 412.409 229.691 411.965 230.376C411.533 231.06 410.914 231.577 410.11 231.925C409.317 232.273 408.38 232.447 407.3 232.447Z" fill="white"/>
<path d="M382.676 232.267V220.667H388.476C389.845 220.667 390.854 221.027 391.502 221.748C392.151 222.468 392.475 223.435 392.475 224.648C392.475 225.428 392.277 226.113 391.88 226.701C391.484 227.29 390.944 227.728 390.259 228.016C390.427 228.148 390.559 228.298 390.656 228.467C390.764 228.623 390.878 228.845 390.998 229.133L392.367 232.267H389.341L388.044 229.313C387.936 229.061 387.797 228.881 387.629 228.773C387.461 228.653 387.221 228.593 386.909 228.593H385.576V232.267H382.676ZM385.576 226.359H387.719C388.284 226.359 388.722 226.221 389.034 225.945C389.359 225.657 389.521 225.224 389.521 224.648C389.521 223.483 388.962 222.901 387.846 222.901H385.576V226.359Z" fill="white"/>
<path d="M367.309 232.448C365.423 232.448 363.988 231.968 363.003 231.007C362.019 230.046 361.526 228.551 361.526 226.522C361.526 224.372 362.019 222.829 363.003 221.892C363.988 220.956 365.423 220.487 367.309 220.487C369.194 220.487 370.629 220.956 371.614 221.892C372.598 222.829 373.091 224.372 373.091 226.522C373.091 228.551 372.598 230.046 371.614 231.007C370.629 231.968 369.194 232.448 367.309 232.448ZM367.309 229.98C368.281 229.98 368.99 229.704 369.434 229.152C369.89 228.587 370.119 227.711 370.119 226.522C370.119 225.225 369.89 224.312 369.434 223.784C368.99 223.243 368.281 222.973 367.309 222.973C366.324 222.973 365.603 223.243 365.147 223.784C364.703 224.312 364.48 225.225 364.48 226.522C364.48 227.711 364.703 228.587 365.147 229.152C365.603 229.704 366.324 229.98 367.309 229.98Z" fill="white"/>
<path d="M344.229 232.267V220.667H352.66V222.901H347.13V225.332H351.993V227.602H347.13V232.267H344.229Z" fill="white"/>
<path d="M317.849 232.448C317.08 232.448 316.36 232.388 315.687 232.268C315.027 232.16 314.456 231.998 313.976 231.781V229.314C314.504 229.542 315.087 229.728 315.723 229.872C316.372 230.016 316.984 230.088 317.561 230.088C318.281 230.088 318.816 230.022 319.164 229.89C319.524 229.758 319.704 229.47 319.704 229.025C319.704 228.725 319.614 228.485 319.434 228.305C319.266 228.125 318.984 227.969 318.587 227.837C318.203 227.692 317.675 227.524 317.002 227.332C316.21 227.092 315.579 226.828 315.111 226.54C314.643 226.239 314.306 225.879 314.102 225.459C313.898 225.039 313.796 224.522 313.796 223.91C313.796 222.805 314.192 221.958 314.985 221.37C315.777 220.782 316.948 220.487 318.497 220.487C319.17 220.487 319.824 220.541 320.461 220.649C321.097 220.745 321.614 220.86 322.01 220.992V223.477C321.493 223.273 320.971 223.123 320.443 223.027C319.926 222.931 319.422 222.883 318.93 222.883C318.281 222.883 317.753 222.943 317.344 223.063C316.948 223.183 316.75 223.459 316.75 223.892C316.75 224.144 316.822 224.348 316.966 224.504C317.11 224.648 317.356 224.78 317.705 224.9C318.065 225.021 318.551 225.165 319.164 225.333C320.112 225.585 320.839 225.891 321.343 226.251C321.848 226.6 322.196 227.008 322.388 227.476C322.58 227.933 322.676 228.449 322.676 229.025C322.676 230.046 322.28 230.875 321.487 231.511C320.695 232.136 319.482 232.448 317.849 232.448Z" fill="white"/>
<path d="M293.394 232.267L297.825 220.667H300.959L305.39 232.267H302.364L301.319 229.637H297.446L296.42 232.267H293.394ZM297.843 227.494H300.923L299.374 223.459L297.843 227.494Z" fill="white"/>
<path d="M274.742 232.267V220.667H280.867C282.031 220.667 282.908 220.943 283.496 221.496C284.097 222.048 284.397 222.829 284.397 223.837C284.397 224.45 284.277 224.966 284.037 225.386C283.809 225.795 283.502 226.113 283.118 226.341C283.647 226.533 284.061 226.815 284.361 227.188C284.661 227.56 284.811 228.118 284.811 228.863C284.811 229.968 284.487 230.814 283.839 231.403C283.19 231.979 282.26 232.267 281.047 232.267H274.742ZM277.642 225.386H280.002C280.506 225.386 280.873 225.272 281.101 225.044C281.329 224.816 281.443 224.498 281.443 224.089C281.443 223.645 281.329 223.315 281.101 223.099C280.873 222.871 280.458 222.756 279.858 222.756H277.642V225.386ZM277.642 230.196H280.29C280.819 230.196 281.209 230.088 281.461 229.872C281.725 229.655 281.857 229.271 281.857 228.719C281.857 228.274 281.731 227.944 281.479 227.728C281.227 227.5 280.795 227.386 280.182 227.386H277.642V230.196Z" fill="white"/>
<path d="M260.481 219.244V217.497H266.21V219.244H260.481ZM261.886 232.268V220.667H264.787V232.268H261.886Z" fill="white"/>
<path d="M242.241 232.267V220.667H248.366C249.53 220.667 250.407 220.943 250.996 221.496C251.596 222.048 251.896 222.829 251.896 223.837C251.896 224.45 251.776 224.966 251.536 225.386C251.308 225.795 251.002 226.113 250.617 226.341C251.146 226.533 251.56 226.815 251.86 227.188C252.16 227.56 252.31 228.118 252.31 228.863C252.31 229.968 251.986 230.814 251.338 231.403C250.689 231.979 249.759 232.267 248.546 232.267H242.241ZM245.141 225.386H247.501C248.005 225.386 248.372 225.272 248.6 225.044C248.828 224.816 248.942 224.498 248.942 224.089C248.942 223.645 248.828 223.315 248.6 223.099C248.372 222.871 247.957 222.756 247.357 222.756H245.141V225.386ZM245.141 230.196H247.789C248.318 230.196 248.708 230.088 248.96 229.872C249.224 229.655 249.356 229.271 249.356 228.719C249.356 228.274 249.23 227.944 248.978 227.728C248.726 227.5 248.294 227.386 247.681 227.386H245.141V230.196Z" fill="white"/>
<path d="M222.859 232.267V220.667H228.66C230.029 220.667 231.037 221.027 231.686 221.748C232.334 222.468 232.658 223.435 232.658 224.648C232.658 225.428 232.46 226.113 232.064 226.701C231.668 227.29 231.127 227.728 230.443 228.016C230.611 228.148 230.743 228.298 230.839 228.467C230.947 228.623 231.061 228.845 231.181 229.133L232.55 232.267H229.524L228.227 229.313C228.119 229.061 227.981 228.881 227.813 228.773C227.645 228.653 227.405 228.593 227.092 228.593H225.759V232.267H222.859ZM225.759 226.359H227.903C228.467 226.359 228.906 226.221 229.218 225.945C229.542 225.657 229.704 225.224 229.704 224.648C229.704 223.483 229.146 222.901 228.029 222.901H225.759V226.359Z" fill="white"/>
<path d="M201.288 232.267L205.719 220.667H208.854L213.285 232.267H210.259L209.214 229.637H205.341L204.314 232.267H201.288ZM205.737 227.494H208.818L207.268 223.459L205.737 227.494Z" fill="white"/>
<path d="M182.584 232.267V220.667H187.61C188.786 220.667 189.777 220.865 190.582 221.261C191.386 221.646 191.999 222.27 192.419 223.135C192.839 223.987 193.05 225.122 193.05 226.539C193.05 228.533 192.587 229.986 191.663 230.898C190.75 231.811 189.399 232.267 187.61 232.267H182.584ZM185.484 230.034H187.213C187.838 230.034 188.36 229.944 188.78 229.764C189.213 229.571 189.537 229.223 189.753 228.719C189.981 228.214 190.095 227.488 190.095 226.539C190.095 225.579 189.993 224.84 189.789 224.324C189.597 223.795 189.285 223.429 188.852 223.225C188.432 223.009 187.886 222.901 187.213 222.901H185.484V230.034Z" fill="white"/>
<path d="M161.013 232.267L165.444 220.667H168.578L173.009 232.267H169.983L168.938 229.637H165.066L164.039 232.267H161.013ZM165.462 227.494H168.542L166.993 223.459L165.462 227.494Z" fill="white"/>
<path d="M148.147 232.448C147.378 232.448 146.658 232.388 145.985 232.268C145.325 232.16 144.754 231.998 144.274 231.781V229.314C144.802 229.542 145.385 229.728 146.021 229.872C146.67 230.016 147.282 230.088 147.858 230.088C148.579 230.088 149.113 230.022 149.462 229.89C149.822 229.758 150.002 229.47 150.002 229.025C150.002 228.725 149.912 228.485 149.732 228.305C149.564 228.125 149.281 227.969 148.885 227.837C148.501 227.692 147.973 227.524 147.3 227.332C146.507 227.092 145.877 226.828 145.409 226.54C144.94 226.239 144.604 225.879 144.4 225.459C144.196 225.039 144.094 224.522 144.094 223.91C144.094 222.805 144.49 221.958 145.283 221.37C146.075 220.782 147.246 220.487 148.795 220.487C149.468 220.487 150.122 220.541 150.759 220.649C151.395 220.745 151.911 220.86 152.308 220.992V223.477C151.791 223.273 151.269 223.123 150.741 223.027C150.224 222.931 149.72 222.883 149.227 222.883C148.579 222.883 148.051 222.943 147.642 223.063C147.246 223.183 147.048 223.459 147.048 223.892C147.048 224.144 147.12 224.348 147.264 224.504C147.408 224.648 147.654 224.78 148.003 224.9C148.363 225.021 148.849 225.165 149.462 225.333C150.41 225.585 151.137 225.891 151.641 226.251C152.146 226.6 152.494 227.008 152.686 227.476C152.878 227.933 152.974 228.449 152.974 229.025C152.974 230.046 152.578 230.875 151.785 231.511C150.993 232.136 149.78 232.448 148.147 232.448Z" fill="white"/>
<path d="M437.251 200.685C431.006 200.685 425.098 200.205 419.526 199.244C413.954 198.187 409.199 196.746 405.26 194.921V172.585C409.583 174.602 414.386 176.235 419.67 177.484C424.954 178.733 429.902 179.358 434.513 179.358C439.316 179.358 442.919 178.973 445.321 178.205C447.818 177.34 449.067 175.467 449.067 172.585C449.067 170.567 448.347 168.982 446.906 167.829C445.561 166.676 443.399 165.62 440.421 164.659C437.539 163.698 433.744 162.497 429.037 161.056C422.792 159.039 417.845 156.829 414.194 154.428C410.544 152.026 407.902 149.096 406.269 145.637C404.731 142.179 403.963 137.952 403.963 132.956C403.963 123.83 407.181 116.913 413.618 112.205C420.151 107.402 429.806 105 442.583 105C447.674 105 452.91 105.432 458.29 106.297C463.766 107.162 468.185 108.122 471.548 109.179V131.659C467.032 129.834 462.709 128.537 458.578 127.768C454.447 127 450.556 126.616 446.906 126.616C442.679 126.616 439.076 126.952 436.098 127.624C433.12 128.297 431.631 130.026 431.631 132.812C431.631 135.214 432.88 136.991 435.378 138.144C437.971 139.201 442.535 140.594 449.067 142.323C456.657 144.34 462.421 146.79 466.36 149.672C470.395 152.554 473.133 155.917 474.574 159.759C476.015 163.506 476.735 167.781 476.735 172.585C476.735 181.039 473.469 187.86 466.936 193.047C460.404 198.139 450.508 200.685 437.251 200.685Z" fill="white"/>
<path d="M313.544 199.244V106.441H364.557C373.971 106.441 381.129 108.651 386.028 113.07C390.928 117.489 393.377 123.829 393.377 132.091C393.377 136.895 392.465 140.93 390.639 144.196C388.91 147.462 386.605 150.056 383.722 151.978C387.661 153.515 390.784 155.772 393.089 158.751C395.491 161.633 396.692 165.956 396.692 171.72C396.692 180.462 394.002 187.235 388.622 192.039C383.242 196.842 375.605 199.244 365.71 199.244H313.544ZM339.627 143.476H357.207C363.836 143.476 367.151 140.497 367.151 134.541C367.151 131.563 366.334 129.305 364.701 127.768C363.164 126.231 360.426 125.463 356.487 125.463H339.627V143.476ZM339.627 180.366H358.36C362.011 180.366 364.701 179.598 366.43 178.061C368.159 176.523 369.024 173.978 369.024 170.423C369.024 167.445 368.159 165.187 366.43 163.65C364.701 162.113 361.819 161.344 357.784 161.344H339.627V180.366Z" fill="white"/>
<path d="M257.421 200.685C248.775 200.685 241.138 199.292 234.509 196.506C227.976 193.624 222.836 189.445 219.09 183.969C215.343 178.397 213.47 171.576 213.47 163.506V106.441H240.561V160.624C240.561 171.96 246.181 177.628 257.421 177.628C262.801 177.628 266.932 176.235 269.814 173.449C272.696 170.663 274.137 166.388 274.137 160.624V106.441H301.229V163.506C301.229 171.576 299.356 178.397 295.609 183.969C291.958 189.445 286.819 193.624 280.19 196.506C273.657 199.292 266.068 200.685 257.421 200.685Z" fill="white"/>
<path d="M123 199.244V106.441H150.092V139.152L178.192 106.441H209.03L176.318 144.484L211.336 199.244H182.515L159.602 161.777L150.092 172.44V199.244H123Z" fill="white"/>
</svg>
