<svg width="6455" height="1024" viewBox="0 0 6455 1024" fill="none" xmlns="http://www.w3.org/2000/svg">
<path fill-rule="evenodd" clip-rule="evenodd" d="M567.59 171H228V177.372C272.611 178.282 284.447 206.499 284.447 246.548V778.118C284.447 818.168 272.611 846.385 228 848.205V853.667H333V183H360V853.667H443.771V848.205C399.161 846.385 387.325 818.168 387.325 778.118V182.833H482.92C574.873 182.833 643.155 228.344 643.155 324.828C643.155 380.351 598.544 431.324 558.485 467.732C557.139 468.969 555.8 470.195 554.472 471.413C501.013 520.408 463.084 555.17 507.501 630.662L630.409 827.27C644.976 851.846 666.826 853.667 693.229 853.667H796.107V848.205C771.526 847.295 756.959 836.372 743.302 814.527L578.515 551.473C565.769 529.628 552.112 498.68 569.411 475.014C578.515 462.271 594.903 454.989 613.111 448.618C679.572 428.593 744.213 400.376 746.034 318.456C746.944 215.601 660.453 171 567.59 171Z" fill="white"/>
<path fill-rule="evenodd" clip-rule="evenodd" d="M1290.67 171H816.445V176.461C861.046 177.372 872.879 206.499 872.879 246.549V778.121C872.879 818.171 861.046 847.298 816.445 848.209V853.67H922.998V183H949.998V853.67H1310.7L1355.3 739.892H1349.84C1298.87 819.992 1213.3 841.837 1122.28 841.837H974.825V507.784C991.209 484.118 1013.05 478.657 1042.18 489.579C1058.27 495.888 1075.34 507.008 1093.28 518.694C1127.11 540.728 1164.04 564.777 1203.29 562.397C1243.34 560.577 1276.11 526.899 1285.21 458.632L1279.75 457.721C1264.28 497.771 1220.59 496.861 1191.46 489.579C1174.18 485.181 1157.98 477.637 1141.78 470.092C1111.06 455.78 1080.33 441.467 1042.18 448.619C1011.23 453.17 994.85 466.824 974.825 490.49V182.833H1102.26C1193.28 182.833 1268.83 204.678 1320.71 284.778H1326.17L1290.67 171Z" fill="white"/>
<path d="M1842 668.894V247.459C1842 207.409 1818.34 178.282 1772.82 176.461V171H1922.1V176.461C1876.59 178.282 1853.84 207.409 1853.84 247.459V853.67H1842L1437.86 250.19V778.121C1437.86 818.171 1462.44 846.388 1507.04 847.298V853.67H1358.67V847.298C1403.27 846.388 1426.03 818.171 1426.03 778.121V232.895L1414.2 214.691C1399.63 191.025 1388.71 177.372 1358.67 176.461V171H1508.86L1842 668.894Z" fill="white"/>
<path fill-rule="evenodd" clip-rule="evenodd" d="M2175.71 182.833C2364.13 182.833 2423.29 345.763 2423.29 513.245C2423.29 679.817 2364.13 841.837 2175.71 841.837H2101.07V182.833H2175.71ZM1941.79 176.461C1986.39 177.372 1998.22 207.409 1998.22 247.459V778.121C1998.22 818.171 1986.39 847.298 1941.79 848.209V853.67H2049V183H2076V853.67H2228.51C2434.22 853.67 2526.15 738.981 2526.15 513.245C2526.15 286.599 2434.22 171 2228.51 171H1941.79V176.461Z" fill="white"/>
<path fill-rule="evenodd" clip-rule="evenodd" d="M3040.02 171H2565.79V176.461C2610.39 177.372 2622.22 206.499 2622.22 246.549V778.121C2622.22 818.171 2610.39 847.298 2565.79 848.209V853.67H2672V183H2699V853.67H3060.04L3104.64 739.892H3099.18C3048.21 819.992 2962.65 841.837 2871.62 841.837H2724.17V507.784C2740.55 484.118 2762.4 478.657 2791.53 489.579C2807.61 495.888 2824.69 507.008 2842.63 518.694C2876.46 540.728 2913.38 564.777 2952.64 562.397C2992.69 560.577 3025.45 526.899 3034.56 458.632L3029.09 457.721C3013.62 497.771 2969.93 496.861 2940.8 489.579C2923.52 485.181 2907.33 477.637 2891.13 470.092C2860.4 455.78 2829.67 441.467 2791.53 448.619C2760.58 453.17 2744.19 466.824 2724.17 490.49V182.833H2851.6C2942.62 182.833 3018.17 204.678 3070.05 284.778H3075.52L3040.02 171Z" fill="white"/>
<path d="M3636.15 215.601L3259.32 840.927H3462.3C3552.41 840.927 3637.97 819.081 3688.95 739.892H3695.32L3649.81 853.67H3137.35V847.298L3535.12 182.833H3393.12C3303.01 182.833 3225.64 205.589 3174.67 283.868H3169.21L3204.7 171H3695.32V176.461C3666.19 177.372 3650.72 188.294 3636.15 215.601Z" fill="white"/>
<path d="M4079.91 788.134L4269.24 225.614C4274.7 213.781 4273.79 200.127 4265.6 191.025C4255.59 178.282 4235.56 176.461 4220.09 176.461V171H4340.24V176.461C4310.2 177.372 4294.73 189.205 4285.63 217.422L4086.29 806.338L4101.76 853.67H4021.66C4004.37 853.67 3990.71 844.568 3985.25 829.094L3780.45 221.973C3770.44 192.845 3757.69 177.372 3724.02 176.461V171H3930.64V176.461C3899.69 177.372 3877.84 190.115 3889.68 223.793L4079.91 788.134Z" fill="white"/>
<path d="M4666.65 171C4855.06 171 5007.98 323.008 5007.98 511.425C5007.98 700.752 4855.06 853.67 4666.65 853.67C4478.23 853.67 4325.31 700.752 4325.31 511.425C4325.31 323.008 4478.23 171 4666.65 171ZM4762.22 828.184C4881.46 791.775 4936.98 621.562 4883.28 446.799C4831.4 272.945 4692.13 160.988 4571.07 196.486C4451.83 231.985 4397.22 402.198 4450.01 577.871C4501.9 751.725 4641.16 863.682 4762.22 828.184Z" fill="white"/>
<path fill-rule="evenodd" clip-rule="evenodd" d="M5352.46 853.67C5486.26 853.67 5594.58 771.75 5594.58 603.358V246.549C5594.58 207.409 5606.41 178.282 5651.02 177.372V171H5525.4V177.372C5570.01 178.282 5582.75 207.409 5582.75 246.549V599.717C5582.75 678.906 5554.53 748.994 5496.28 788.134C5418 840.017 5284.19 830.914 5235.04 741.712C5215.02 705.303 5208.65 656.151 5208.65 596.986V246.549C5208.65 207.409 5220.48 178.282 5265.08 177.372V171H5049.36V177.372C5094.87 178.282 5105.79 207.409 5105.79 246.549V589.704C5105.79 663.872 5125.06 721.7 5157 764.076V183H5184V793.678C5228.6 834.151 5288.3 853.67 5352.46 853.67Z" fill="white"/>
<path d="M6169.75 783.583C6112.41 836.376 6012.28 853.67 5936.73 853.67C5883.03 853.67 5827.51 846.388 5779.27 824.543C5734.66 805.428 5681.87 765.378 5676.41 717.136C5672.77 683.458 5690.06 652.51 5726.47 647.959C5779.27 641.587 5794.74 682.547 5804.75 723.508C5828.42 819.992 5912.16 849.119 6005.91 835.465C6053.24 829.094 6102.4 810.889 6133.34 776.301C6193.42 712.585 6160.65 623.383 6086.01 585.153C5977.69 529.629 5831.15 543.283 5737.4 471.375C5667.31 418.582 5660.03 310.265 5724.65 244.728C5777.45 191.025 5870.29 171 5944.02 171C6023.21 171 6136.98 195.576 6190.69 257.472C6204.34 272.945 6213.44 295.701 6215.26 317.546C6216.17 350.315 6200.7 374.891 6165.2 379.442C6117.87 385.814 6103.31 352.135 6094.2 313.906C6069.63 219.242 5994.99 175.551 5895.77 187.384C5856.63 191.935 5810.21 205.589 5777.45 232.895C5722.83 275.676 5712.82 353.956 5780.18 391.275C5869.38 440.427 6008.64 434.055 6107.86 476.836C6238.93 532.36 6265.33 695.291 6169.75 783.583Z" fill="white"/>
</svg>
